<?xml version="1.0" encoding="UTF-8"?>
<svg version="1.1" xmlns="http://www.w3.org/2000/svg" width="1061" height="1061">
<path d="M0 0 C350.13 0 700.26 0 1061 0 C1061 350.13 1061 700.26 1061 1061 C710.87 1061 360.74 1061 0 1061 C0 710.87 0 360.74 0 0 Z " fill="#38D252" transform="translate(0,0)"/>
<path d="M0 0 C59.73 0 119.46 0 181 0 C181 19.8 181 39.6 181 60 C200.8 60 220.6 60 241 60 C241 119.73 241 179.46 241 241 C221.2 241 201.4 241 181 241 C181 260.8 181 280.6 181 301 C121.27 301 61.54 301 0 301 C0 201.67 0 102.34 0 0 Z " fill="#010B23" transform="translate(260,380)"/>
<path d="M0 0 C39.93 0 79.86 0 121 0 C121 19.8 121 39.6 121 60 C140.8 60 160.6 60 181 60 C181 80.13 181 100.26 181 121 C161.2 121 141.4 121 121 121 C121 101.2 121 81.4 121 61 C81.4 61 41.8 61 1 61 C1 120.07 1 179.14 1 240 C60.4 240 119.8 240 181 240 C181 260.13 181 280.26 181 301 C121.27 301 61.54 301 0 301 C0 281.2 0 261.4 0 241 C-19.8 241 -39.6 241 -60 241 C-60 181.27 -60 121.54 -60 60 C-40.2 60 -20.4 60 0 60 C0 40.2 0 20.4 0 0 Z " fill="#010B23" transform="translate(620,380)"/>
<path d="M0 0 C59.4 0 118.8 0 180 0 C180 59.4 180 118.8 180 180 C120.6 180 61.2 180 0 180 C0 120.6 0 61.2 0 0 Z " fill="#010B23" transform="translate(741,741)"/>
<path d="M0 0 C59.4 0 118.8 0 180 0 C180 59.4 180 118.8 180 180 C120.6 180 61.2 180 0 180 C0 120.6 0 61.2 0 0 Z " fill="#010B23" transform="translate(140,140)"/>
<path d="M0 0 C138.93 0 277.86 0 421 0 C421 19.8 421 39.6 421 60 C282.07 60 143.14 60 0 60 C0 40.2 0 20.4 0 0 Z " fill="#010B23" transform="translate(380,260)"/>
<path d="M0 0 C19.8 0 39.6 0 60 0 C60 19.8 60 39.6 60 60 C79.8 60 99.6 60 120 60 C120 159.33 120 258.66 120 361 C100.2 361 80.4 361 60 361 C60 262 60 163 60 61 C40.2 61 20.4 61 0 61 C0 40.87 0 20.74 0 0 Z " fill="#010B23" transform="translate(801,320)"/>
<path d="M0 0 C39.6 0 79.2 0 120 0 C120 59.07 120 118.14 120 179 C80.4 179 40.8 179 0 179 C0 119.93 0 60.86 0 0 Z " fill="#38D252" transform="translate(320,441)"/>
<path d="M0 0 C20.13 0 40.26 0 61 0 C61 19.8 61 39.6 61 60 C41.2 60 21.4 60 1 60 C1 79.8 1 99.6 1 120 C20.8 120 40.6 120 61 120 C61 139.8 61 159.6 61 180 C40.87 180 20.74 180 0 180 C0 160.2 0 140.4 0 120 C-19.47 120 -38.94 120 -59 120 C-59 100.2 -59 80.4 -59 60 C-39.53 60 -20.06 60 0 60 C0 40.2 0 20.4 0 0 Z " fill="#010C23" transform="translate(620,741)"/>
<path d="M0 0 C19.8 0 39.6 0 60 0 C60 59.73 60 119.46 60 181 C40.2 181 20.4 181 0 181 C0 121.27 0 61.54 0 0 Z " fill="#010B23" transform="translate(140,380)"/>
<path d="M0 0 C19.8 0 39.6 0 60 0 C60 59.4 60 118.8 60 180 C40.2 180 20.4 180 0 180 C0 120.6 0 61.2 0 0 Z " fill="#010B23" transform="translate(861,140)"/>
<path d="M0 0 C59.4 0 118.8 0 180 0 C180 19.8 180 39.6 180 60 C120.6 60 61.2 60 0 60 C0 40.2 0 20.4 0 0 Z " fill="#010B23" transform="translate(501,140)"/>
<path d="M0 0 C19.8 0 39.6 0 60 0 C60 19.8 60 39.6 60 60 C40.53 60 21.06 60 1 60 C1 79.8 1 99.6 1 120 C-19.13 120 -39.26 120 -60 120 C-60 100.2 -60 80.4 -60 60 C-40.2 60 -20.4 60 0 60 C0 40.2 0 20.4 0 0 Z " fill="#010C23" transform="translate(380,801)"/>
<path d="M0 0 C20.13 0 40.26 0 61 0 C61 19.8 61 39.6 61 60 C40.87 60 20.74 60 0 60 C0 40.2 0 20.4 0 0 Z " fill="#010C23" transform="translate(440,741)"/>
<path d="M0 0 C19.8 0 39.6 0 60 0 C60 19.8 60 39.6 60 60 C40.2 60 20.4 60 0 60 C0 40.2 0 20.4 0 0 Z " fill="#010B23" transform="translate(140,861)"/>
<path d="M0 0 C19.8 0 39.6 0 60 0 C60 19.8 60 39.6 60 60 C40.2 60 20.4 60 0 60 C0 40.2 0 20.4 0 0 Z " fill="#38D252" transform="translate(801,801)"/>
<path d="M0 0 C19.8 0 39.6 0 60 0 C60 19.8 60 39.6 60 60 C40.2 60 20.4 60 0 60 C0 40.2 0 20.4 0 0 Z " fill="#010B23" transform="translate(200,801)"/>
<path d="M0 0 C19.8 0 39.6 0 60 0 C60 19.8 60 39.6 60 60 C40.2 60 20.4 60 0 60 C0 40.2 0 20.4 0 0 Z " fill="#010B23" transform="translate(140,741)"/>
<path d="M0 0 C19.8 0 39.6 0 60 0 C60 19.8 60 39.6 60 60 C40.2 60 20.4 60 0 60 C0 40.2 0 20.4 0 0 Z " fill="#010B23" transform="translate(140,621)"/>
<path d="M0 0 C19.8 0 39.6 0 60 0 C60 19.8 60 39.6 60 60 C40.2 60 20.4 60 0 60 C0 40.2 0 20.4 0 0 Z " fill="#38D152" transform="translate(200,200)"/>
<path d="M0 0 C19.8 0 39.6 0 60 0 C60 19.8 60 39.6 60 60 C40.2 60 20.4 60 0 60 C0 40.2 0 20.4 0 0 Z " fill="#010B23" transform="translate(741,140)"/>
<path d="M0 0 C19.8 0 39.6 0 60 0 C60 19.8 60 39.6 60 60 C40.2 60 20.4 60 0 60 C0 40.2 0 20.4 0 0 Z " fill="#010B23" transform="translate(380,140)"/>
<path d="M0 0 C39.93 0 79.86 0 121 0 C121 0.33 121 0.66 121 1 C81.4 1 41.8 1 1 1 C1 20.47 1 39.94 1 60 C60.4 60 119.8 60 181 60 C181 60.33 181 60.66 181 61 C121.6 61 62.2 61 1 61 C1 120.07 1 179.14 1 240 C60.4 240 119.8 240 181 240 C181 240.33 181 240.66 181 241 C121.6 241 62.2 241 1 241 C1 260.8 1 280.6 1 301 C0.67 301 0.34 301 0 301 C0 281.2 0 261.4 0 241 C-19.8 241 -39.6 241 -60 241 C-60 181.27 -60 121.54 -60 60 C-40.2 60 -20.4 60 0 60 C0 40.2 0 20.4 0 0 Z M-59 61 C-59 120.07 -59 179.14 -59 240 C-39.53 240 -20.06 240 0 240 C0 180.93 0 121.86 0 61 C-19.47 61 -38.94 61 -59 61 Z " fill="#165835" transform="translate(620,380)"/>
<path d="M0 0 C59.73 0 119.46 0 181 0 C181 19.8 181 39.6 181 60 C200.8 60 220.6 60 241 60 C241 119.73 241 179.46 241 241 C221.2 241 201.4 241 181 241 C181 260.8 181 280.6 181 301 C180.67 301 180.34 301 180 301 C180 281.2 180 261.4 180 241 C140.4 241 100.8 241 60 241 C60 240.67 60 240.34 60 240 C99.6 240 139.2 240 180 240 C180 180.93 180 121.86 180 61 C140.4 61 100.8 61 60 61 C60 60.67 60 60.34 60 60 C99.6 60 139.2 60 180 60 C180 40.53 180 21.06 180 1 C120.6 1 61.2 1 0 1 C0 0.67 0 0.34 0 0 Z M181 61 C181 120.07 181 179.14 181 240 C200.47 240 219.94 240 240 240 C240 180.93 240 121.86 240 61 C220.53 61 201.06 61 181 61 Z " fill="#134E33" transform="translate(260,380)"/>
</svg>
